<svg width="14" height="14" viewBox="0 0 14 14" fill="none" xmlns="http://www.w3.org/2000/svg">
<path d="M2.59596 10.8996C3.22227 10.4348 3.90456 10.0678 4.64282 9.79861C5.38107 9.52938 6.1668 9.39476 7 9.39476C7.8332 9.39476 8.61893 9.52938 9.35718 9.79861C10.0954 10.0678 10.7777 10.4348 11.404 10.8996C11.8622 10.3961 12.2252 9.81325 12.493 9.15103C12.7608 8.48881 12.8948 7.77179 12.8948 7C12.8948 5.36666 12.3206 3.97587 11.1724 2.82762C10.0241 1.67937 8.63334 1.10525 7 1.10525C5.36666 1.10525 3.97587 1.67937 2.82762 2.82762C1.67937 3.97587 1.10525 5.36666 1.10525 7C1.10525 7.77179 1.23916 8.48881 1.50697 9.15103C1.77479 9.81325 2.13779 10.3961 2.59596 10.8996ZM7.00022 7.55261C6.32747 7.55261 5.76012 7.32172 5.29818 6.85993C4.83624 6.39812 4.60528 5.83085 4.60528 5.15811C4.60528 4.48536 4.83617 3.91802 5.29796 3.45608C5.75977 2.99414 6.32704 2.76316 6.99978 2.76316C7.67253 2.76316 8.23987 2.99406 8.70181 3.45585C9.16375 3.91766 9.39472 4.48493 9.39472 5.15767C9.39472 5.83042 9.16383 6.39777 8.70203 6.8597C8.24023 7.32164 7.67296 7.55261 7.00022 7.55261ZM7 14C6.02793 14 5.11609 13.8172 4.26448 13.4516C3.41286 13.086 2.67201 12.5882 2.04191 11.9581C1.41182 11.328 0.913981 10.5871 0.548396 9.73552C0.182799 8.88391 0 7.97207 0 7C0 6.02793 0.182799 5.11609 0.548396 4.26448C0.913981 3.41286 1.41182 2.67201 2.04191 2.04191C2.67201 1.41182 3.41286 0.913982 4.26448 0.548397C5.11609 0.182799 6.02793 0 7 0C7.97207 0 8.88391 0.182799 9.73552 0.548397C10.5871 0.913982 11.328 1.41182 11.9581 2.04191C12.5882 2.67201 13.086 3.41286 13.4516 4.26448C13.8172 5.11609 14 6.02793 14 7C14 7.97207 13.8172 8.88391 13.4516 9.73552C13.086 10.5871 12.5882 11.328 11.9581 11.9581C11.328 12.5882 10.5871 13.086 9.73552 13.4516C8.88391 13.8172 7.97207 14 7 14ZM7 12.8948C7.66505 12.8948 8.30624 12.7878 8.92358 12.5738C9.54094 12.3598 10.0891 12.0606 10.568 11.6761C10.0891 11.3058 9.54803 11.0172 8.94484 10.8103C8.34168 10.6034 7.69339 10.5 7 10.5C6.3066 10.5 5.65714 10.6023 5.0516 10.8068C4.44606 11.0113 3.90618 11.3011 3.43196 11.6761C3.91091 12.0606 4.45906 12.3598 5.07641 12.5738C5.69375 12.7878 6.33495 12.8948 7 12.8948ZM7 6.44739C7.36653 6.44739 7.67308 6.32411 7.91965 6.07755C8.16621 5.83097 8.28949 5.52442 8.28949 5.15789C8.28949 4.79136 8.16621 4.48481 7.91965 4.23823C7.67308 3.99167 7.36653 3.8684 7 3.8684C6.63347 3.8684 6.32692 3.99167 6.08034 4.23823C5.83378 4.48481 5.7105 4.79136 5.7105 5.15789C5.7105 5.52442 5.83378 5.83097 6.08034 6.07755C6.32692 6.32411 6.63347 6.44739 7 6.44739Z" fill="white"/>
</svg>
