<svg width="12" height="14" viewBox="0 0 12 14" fill="none" xmlns="http://www.w3.org/2000/svg">
<path d="M6 12.3494L2.33609 13.8565C1.77988 14.0845 1.25149 14.0408 0.750902 13.7255C0.250301 13.4103 0 12.9669 0 12.3953V1.59898C0 1.15217 0.161539 0.773969 0.484617 0.464381C0.807695 0.154794 1.20237 0 1.66865 0H10.3313C10.7976 0 11.1923 0.154794 11.5154 0.464381C11.8385 0.773969 12 1.15217 12 1.59898V12.3953C12 12.9669 11.7497 13.4103 11.2491 13.7255C10.7485 14.0408 10.2201 14.0845 9.66391 13.8565L6 12.3494ZM6 10.8798L10.216 12.6199C10.3106 12.6596 10.4009 12.6511 10.4867 12.5944C10.5725 12.5377 10.6154 12.4611 10.6154 12.3647V1.59898C10.6154 1.53093 10.5858 1.46854 10.5266 1.41183C10.4675 1.35513 10.4024 1.32678 10.3313 1.32678H1.66865C1.59764 1.32678 1.53254 1.35513 1.47335 1.41183C1.41418 1.46854 1.3846 1.53093 1.3846 1.59898V12.3647C1.3846 12.4611 1.4275 12.5377 1.5133 12.5944C1.59911 12.6511 1.68936 12.6596 1.78404 12.6199L6 10.8798Z" fill="white"/>
</svg>
