<svg width="14" height="14" viewBox="0 0 14 14" fill="none" xmlns="http://www.w3.org/2000/svg">
<path d="M7.08812 14C6.10413 14 5.18246 13.8163 4.32312 13.4489C3.46377 13.0814 2.71444 12.582 2.07511 11.9507C1.43579 11.3193 0.93011 10.5793 0.558066 9.73077C0.186022 8.8822 0 7.9721 0 7.00045C0 6.02881 0.186022 5.11855 0.558066 4.26968C0.93011 3.42081 1.43579 2.68069 2.07511 2.04932C2.71444 1.41796 3.46377 0.918568 4.32312 0.551149C5.18246 0.183717 6.10413 0 7.08812 0C8.1369 0 9.13329 0.217763 10.0773 0.653288C11.0213 1.08881 11.8317 1.70092 12.5084 2.4896V1.15609C12.5084 0.981094 12.5684 0.834403 12.6883 0.71602C12.8082 0.597637 12.9568 0.538446 13.1341 0.538446C13.3114 0.538446 13.4599 0.597637 13.5796 0.71602C13.6994 0.834403 13.7592 0.981094 13.7592 1.15609V3.97507C13.7592 4.18596 13.687 4.36274 13.5426 4.5054C13.3981 4.64808 13.2191 4.71941 13.0055 4.71941H10.1511C9.97387 4.71941 9.82533 4.66019 9.70545 4.54176C9.58558 4.42332 9.52565 4.27657 9.52565 4.1015C9.52565 3.92642 9.58558 3.77975 9.70545 3.6615C9.82533 3.54326 9.97387 3.48414 10.1511 3.48414H11.7066C11.1314 2.78413 10.4456 2.23432 9.64912 1.83471C8.85265 1.43509 7.99899 1.23528 7.08812 1.23528C5.46202 1.23528 4.08261 1.79459 2.9499 2.91322C1.81718 4.03185 1.25083 5.39411 1.25083 7C1.25083 8.60589 1.81718 9.96815 2.9499 11.0868C4.08261 12.2054 5.46202 12.7647 7.08812 12.7647C8.43518 12.7647 9.63391 12.3564 10.6843 11.5397C11.7347 10.7231 12.4187 9.67859 12.7362 8.40633C12.7896 8.23423 12.884 8.10384 13.0192 8.01515C13.1544 7.92647 13.3073 7.89321 13.4779 7.91538C13.6591 7.93756 13.7991 8.01727 13.898 8.15453C13.9969 8.29177 14.0239 8.44222 13.979 8.60587C13.6187 10.1811 12.7992 11.474 11.5206 12.4844C10.242 13.4948 8.76446 14 7.08812 14ZM7.71352 6.74977L10.0068 9.0145C10.1222 9.12853 10.1813 9.27186 10.1839 9.44447C10.1866 9.61709 10.1276 9.76306 10.0068 9.88236C9.88596 10.0017 9.73949 10.0613 9.56736 10.0613C9.39524 10.0613 9.24878 10.0017 9.12798 9.88236L6.6888 7.47353C6.61077 7.39645 6.55357 7.31246 6.51723 7.22157C6.48087 7.13068 6.46269 7.03676 6.46269 6.93982V3.49997C6.46269 3.32498 6.52266 3.1783 6.64259 3.05992C6.76251 2.94153 6.91112 2.88234 7.08839 2.88234C7.26568 2.88234 7.41419 2.94153 7.53392 3.05992C7.65365 3.1783 7.71352 3.32498 7.71352 3.49997V6.74977Z" fill="white"/>
</svg>
