<svg width="12" height="12" viewBox="0 0 12 12" fill="none" xmlns="http://www.w3.org/2000/svg">
<path d="M2.22511 9.34253C2.76195 8.94415 3.34677 8.62958 3.97956 8.39881C4.61235 8.16804 5.28583 8.05265 6 8.05265C6.71417 8.05265 7.38765 8.16804 8.02044 8.39881C8.65323 8.62958 9.23805 8.94415 9.77489 9.34253C10.1676 8.91095 10.4787 8.41135 10.7083 7.84374C10.9379 7.27612 11.0526 6.66154 11.0526 6C11.0526 4.6 10.5605 3.40789 9.57633 2.42368C8.59211 1.43946 7.4 0.947355 6 0.947355C4.6 0.947355 3.40789 1.43946 2.42367 2.42368C1.43946 3.40789 0.947355 4.6 0.947355 6C0.947355 6.66154 1.06213 7.27612 1.29169 7.84374C1.52125 8.41135 1.83239 8.91095 2.22511 9.34253ZM6.00019 6.47367C5.42355 6.47367 4.93725 6.27576 4.5413 5.87994C4.14535 5.4841 3.94738 4.99787 3.94738 4.42124C3.94738 3.84459 4.14529 3.3583 4.54111 2.96235C4.93694 2.5664 5.42318 2.36843 5.99981 2.36843C6.57645 2.36843 7.06275 2.56634 7.4587 2.96216C7.85465 3.35799 8.05262 3.84423 8.05262 4.42086C8.05262 4.9975 7.85471 5.4838 7.45889 5.87975C7.06306 6.2757 6.57682 6.47367 6.00019 6.47367ZM6 12C5.1668 12 4.38522 11.8433 3.65527 11.5299C2.92531 11.2166 2.29029 10.7899 1.7502 10.2498C1.21013 9.70971 0.783413 9.07469 0.470054 8.34473C0.156685 7.61478 0 6.8332 0 6C0 5.1668 0.156685 4.38522 0.470054 3.65527C0.783413 2.92531 1.21013 2.29029 1.7502 1.7502C2.29029 1.21013 2.92531 0.783413 3.65527 0.470054C4.38522 0.156685 5.1668 0 6 0C6.8332 0 7.61478 0.156685 8.34473 0.470054C9.07469 0.783413 9.70971 1.21013 10.2498 1.7502C10.7899 2.29029 11.2166 2.92531 11.5299 3.65527C11.8433 4.38522 12 5.1668 12 6C12 6.8332 11.8433 7.61478 11.5299 8.34473C11.2166 9.07469 10.7899 9.70971 10.2498 10.2498C9.70971 10.7899 9.07469 11.2166 8.34473 11.5299C7.61478 11.8433 6.8332 12 6 12ZM6 11.0526C6.57004 11.0526 7.11964 10.9609 7.64879 10.7775C8.17795 10.5941 8.64779 10.3377 9.05832 10.0081C8.64779 9.69069 8.18402 9.44333 7.66701 9.266C7.15001 9.08866 6.59434 8.99999 6 8.99999C5.40566 8.99999 4.84898 9.08765 4.32994 9.26295C3.81091 9.43826 3.34816 9.68664 2.94168 10.0081C3.35221 10.3377 3.82205 10.5941 4.35121 10.7775C4.88036 10.9609 5.42996 11.0526 6 11.0526ZM6 5.52633C6.31417 5.52633 6.57693 5.42066 6.78828 5.20932C6.99961 4.99798 7.10528 4.73522 7.10528 4.42105C7.10528 4.10688 6.99961 3.84412 6.78828 3.63277C6.57693 3.42144 6.31417 3.31577 6 3.31577C5.68583 3.31577 5.42307 3.42144 5.21172 3.63277C5.00039 3.84412 4.89472 4.10688 4.89472 4.42105C4.89472 4.73522 5.00039 4.99798 5.21172 5.20932C5.42307 5.42066 5.68583 5.52633 6 5.52633Z" fill="#09110D"/>
</svg>
