<svg width="10" height="12" viewBox="0 0 10 12" fill="none" xmlns="http://www.w3.org/2000/svg">
<path d="M5 10.5852L1.94674 11.877C1.48324 12.0724 1.04291 12.035 0.625752 11.7647C0.208584 11.4945 0 11.1145 0 10.6246V1.37055C0 0.987572 0.134616 0.663402 0.403848 0.398041C0.673079 0.13268 1.00198 0 1.39054 0H8.60946C8.99802 0 9.32692 0.13268 9.59615 0.398041C9.86538 0.663402 10 0.987572 10 1.37055V10.6246C10 11.1145 9.79142 11.4945 9.37425 11.7647C8.95709 12.035 8.51676 12.0724 8.05326 11.877L5 10.5852ZM5 9.32551L8.5133 10.8171C8.5922 10.8511 8.6674 10.8438 8.73892 10.7952C8.81042 10.7466 8.84617 10.681 8.84617 10.5983V1.37055C8.84617 1.31222 8.82151 1.25875 8.77221 1.21014C8.72289 1.16154 8.66863 1.13724 8.60946 1.13724H1.39054C1.33136 1.13724 1.27711 1.16154 1.22779 1.21014C1.17849 1.25875 1.15383 1.31222 1.15383 1.37055V10.5983C1.15383 10.681 1.18958 10.7466 1.26108 10.7952C1.33259 10.8438 1.4078 10.8511 1.4867 10.8171L5 9.32551Z" fill="#09110D"/>
</svg>
