<svg width="16" height="16" viewBox="0 0 16 16" fill="none" xmlns="http://www.w3.org/2000/svg">
<path d="M8.07553 15C7.23211 15 6.44211 14.8425 5.70553 14.5276C4.96895 14.2127 4.32666 13.7846 3.77867 13.2434C3.23068 12.7023 2.79724 12.068 2.47834 11.3407C2.15945 10.6133 2 9.83323 2 9.00039C2 8.16755 2.15945 7.38733 2.47834 6.65973C2.79724 5.93213 3.23068 5.29774 3.77867 4.75656C4.32666 4.21539 4.96895 3.78734 5.70553 3.47241C6.44211 3.15747 7.23211 3 8.07553 3C8.97448 3 9.82853 3.18665 10.6377 3.55996C11.4468 3.93327 12.1414 4.45793 12.7215 5.13394V3.99094C12.7215 3.84094 12.7729 3.7152 12.8757 3.61373C12.9785 3.51226 13.1059 3.46153 13.2578 3.46153C13.4098 3.46153 13.5371 3.51226 13.6397 3.61373C13.7423 3.7152 13.7936 3.84094 13.7936 3.99094V6.4072C13.7936 6.58796 13.7317 6.73949 13.6079 6.86177C13.4841 6.98406 13.3306 7.04521 13.1476 7.04521H10.7009C10.549 7.04521 10.4217 6.99445 10.319 6.89293C10.2162 6.79142 10.1648 6.66563 10.1648 6.51557C10.1648 6.3655 10.2162 6.23979 10.319 6.13843C10.4217 6.03708 10.549 5.9864 10.7009 5.9864H12.0342C11.5412 5.3864 10.9534 4.91514 10.2707 4.5726C9.58799 4.23007 8.85627 4.05881 8.07553 4.05881C6.68173 4.05881 5.49938 4.53822 4.52848 5.49705C3.55759 6.45588 3.07214 7.62353 3.07214 9C3.07214 10.3765 3.55759 11.5441 4.52848 12.503C5.49938 13.4618 6.68173 13.9412 8.07553 13.9412C9.23016 13.9412 10.2576 13.5912 11.158 12.8912C12.0583 12.1912 12.6446 11.2959 12.9167 10.2054C12.9625 10.0579 13.0434 9.94615 13.1593 9.87013C13.2752 9.79411 13.4063 9.76561 13.5525 9.78461C13.7078 9.80362 13.8278 9.87195 13.9126 9.9896C13.9973 10.1072 14.0205 10.2362 13.982 10.3765C13.6732 11.7267 12.9708 12.8348 11.8748 13.7009C10.7788 14.567 9.5124 15 8.07553 15ZM8.61159 8.78552L10.5772 10.7267C10.6762 10.8245 10.7268 10.9473 10.7291 11.0953C10.7314 11.2432 10.6808 11.3683 10.5772 11.4706C10.4737 11.5729 10.3481 11.624 10.2006 11.624C10.0531 11.624 9.92753 11.5729 9.82398 11.4706L7.73326 9.40588C7.66637 9.33981 7.61735 9.26782 7.5862 9.18992C7.55503 9.11201 7.53945 9.03151 7.53945 8.94842V5.99997C7.53945 5.84999 7.59085 5.72426 7.69364 5.62278C7.79644 5.52131 7.92381 5.47058 8.07576 5.47058C8.22772 5.47058 8.35502 5.52131 8.45765 5.62278C8.56027 5.72426 8.61159 5.84999 8.61159 5.99997V8.78552Z" fill="#09110D"/>
</svg>
