<svg width="12" height="12" viewBox="0 0 12 12" fill="none" xmlns="http://www.w3.org/2000/svg">
<path d="M1.30451 12C0.939985 12 0.631436 11.8765 0.378861 11.6294C0.126287 11.3824 0 11.0805 0 10.724V1.27603C0 0.919462 0.126287 0.617649 0.378861 0.370589C0.631436 0.12353 0.939985 0 1.30451 0H5.59964C5.75322 0 5.88182 0.050683 5.98543 0.152048C6.08906 0.253401 6.14087 0.379189 6.14087 0.529413C6.14087 0.679637 6.08906 0.805426 5.98543 0.90678C5.88182 1.00813 5.75322 1.05881 5.59964 1.05881H1.30451C1.24899 1.05881 1.1981 1.08143 1.15183 1.12668C1.10557 1.17194 1.08244 1.22172 1.08244 1.27603V10.724C1.08244 10.7783 1.10557 10.8281 1.15183 10.8733C1.1981 10.9186 1.24899 10.9412 1.30451 10.9412H5.59964C5.75322 10.9412 5.88182 10.9919 5.98543 11.0932C6.08906 11.1946 6.14087 11.3204 6.14087 11.4706C6.14087 11.6208 6.08906 11.7466 5.98543 11.848C5.88182 11.9493 5.75322 12 5.59964 12H1.30451ZM10.1876 6.5294H4.57962C4.42604 6.5294 4.29745 6.47872 4.19383 6.37737C4.0902 6.27601 4.03839 6.15022 4.03839 6C4.03839 5.84978 4.0902 5.72399 4.19383 5.62263C4.29745 5.52128 4.42604 5.4706 4.57962 5.4706H10.1876L8.79985 4.11314C8.69994 4.01539 8.64883 3.89616 8.64652 3.75545C8.6442 3.61473 8.69531 3.48962 8.79985 3.38011C8.9044 3.27062 9.03115 3.21406 9.1801 3.21043C9.32904 3.20681 9.45949 3.25975 9.57144 3.36926L11.8043 5.5534C11.9348 5.68101 12 5.82987 12 6C12 6.17013 11.9348 6.31899 11.8043 6.4466L9.57144 8.63074C9.46412 8.73572 9.33668 8.78753 9.18912 8.78618C9.04155 8.78481 8.9118 8.72938 8.79985 8.61989C8.69531 8.51038 8.64489 8.38459 8.64859 8.24252C8.6523 8.10044 8.70642 7.97827 8.81096 7.87601L10.1876 6.5294Z" fill="#C11515"/>
</svg>
