<svg width="32" height="33" viewBox="0 0 32 33" fill="none" xmlns="http://www.w3.org/2000/svg">
<path fill-rule="evenodd" clip-rule="evenodd" d="M20.5255 17.0255C19.3253 18.2257 17.6974 18.9 16 18.9C14.3026 18.9 12.6747 18.2257 11.4745 17.0255C10.2743 15.8252 9.6 14.1974 9.6 12.5C9.6 10.8026 10.2743 9.17475 11.4745 7.97452C12.6747 6.77428 14.3026 6.1 16 6.1C17.6974 6.1 19.3253 6.77428 20.5255 7.97452C21.7257 9.17475 22.4 10.8026 22.4 12.5C22.4 14.1974 21.7257 15.8252 20.5255 17.0255ZM17.8369 16.9346C17.2545 17.1758 16.6303 17.3 16 17.3C14.727 17.3 13.5061 16.7943 12.6059 15.8941C11.7057 14.9939 11.2 13.773 11.2 12.5C11.2 11.227 11.7057 10.0061 12.6059 9.10589C13.5061 8.20571 14.727 7.7 16 7.7C16.6303 7.7 17.2545 7.82416 17.8369 8.06538C18.4192 8.3066 18.9484 8.66017 19.3941 9.10589C19.8398 9.55161 20.1934 10.0808 20.4346 10.6631C20.6758 11.2455 20.8 11.8697 20.8 12.5C20.8 13.1303 20.6758 13.7545 20.4346 14.3369C20.1934 14.9192 19.8398 15.4484 19.3941 15.8941C18.9484 16.3398 18.4192 16.6934 17.8369 16.9346Z" fill="#09110D"/>
<path fill-rule="evenodd" clip-rule="evenodd" d="M32 16.5C32 25.3368 24.8368 32.5 16 32.5C7.1632 32.5 0 25.3368 0 16.5C0 7.6632 7.1632 0.5 16 0.5C24.8368 0.5 32 7.6632 32 16.5ZM23.7047 28.6675C21.4768 30.0813 18.834 30.9 16 30.9C13.0972 30.9 10.395 30.0411 8.13374 28.5635C7.93705 28.3179 7.74286 28.0703 7.5512 27.8208C7.32237 27.5207 7.19893 27.1534 7.2 26.776C7.2 25.9144 7.8192 25.192 8.6472 25.0712C14.1232 24.2712 17.8936 24.34 23.3768 25.0992C23.7739 25.1568 24.1367 25.3561 24.3983 25.6603C24.6599 25.9645 24.8026 26.3532 24.8 26.7544C24.8 27.1384 24.668 27.5112 24.4296 27.8024C24.1913 28.0936 23.9497 28.382 23.7047 28.6675ZM26.3879 26.4725C26.2597 24.9754 25.1224 23.7261 23.596 23.5152C17.9832 22.7384 14.06 22.664 8.416 23.4888C6.87988 23.7131 5.74882 24.9732 5.61359 26.474C3.1279 23.8862 1.6 20.3715 1.6 16.5C1.6 8.5472 8.0472 2.1 16 2.1C23.9528 2.1 30.4 8.5472 30.4 16.5C30.4 20.3707 28.8727 23.8848 26.3879 26.4725Z" fill="#09110D"/>
</svg>
