<svg width="165" height="47" viewBox="0 0 165 47" fill="none" xmlns="http://www.w3.org/2000/svg">
<path d="M136.374 32.6099C136.438 34.3418 136.716 35.3468 137.744 36.619C138.782 37.8913 140.202 38.5274 142.003 38.5274C143.486 38.5274 145.353 38.0142 146.933 37.0914C147.371 36.8354 147.965 37.1375 147.965 37.6487C147.965 37.8478 147.871 38.0358 147.705 38.1443C146.03 39.2428 143.673 39.8744 141.701 39.8744C139.603 39.8744 137.908 39.1154 136.615 37.5973C135.323 36.0791 134.676 33.9356 134.676 31.1666C134.676 28.7718 135.349 26.7566 136.695 25.1208C138.051 23.4744 139.81 22.6512 141.971 22.6512C143.995 22.6512 145.547 23.3675 146.627 24.8001C147.708 26.2327 148.304 27.8417 148.304 29.5523L148.277 30.0921C148.26 30.4135 148.024 30.6799 147.709 30.7321L136.374 32.6099ZM146.723 29.2957C146.659 27.4034 146.209 26.6176 145.372 25.5699C144.535 24.5221 143.38 23.9983 141.907 23.9983C140.382 23.9983 139.116 24.5168 138.109 25.5538C137.113 26.5802 136.099 28.1838 136.099 31.2628L146.723 29.2957Z" fill="#09110D"/>
<path d="M132.978 38.6264C132.978 38.8566 132.857 39.0712 132.655 39.1769C131.402 39.8308 129.933 40.1578 128.249 40.1578C125.826 40.1578 123.873 39.3682 122.389 37.7891C120.906 36.1989 120.164 34.1229 120.164 31.561C120.164 28.8666 120.998 26.6635 122.668 24.9519C124.337 23.2292 126.481 22.3679 129.101 22.3679C130.307 22.3679 131.482 22.5777 132.624 22.9973C132.882 23.0921 133.047 23.3439 133.047 23.6211V23.6941C133.047 24.2222 132.474 24.5582 131.989 24.3598C131.01 23.9595 129.966 23.7593 128.857 23.7593C126.771 23.7593 125.079 24.4771 123.78 25.9126C122.482 27.3371 121.833 29.1868 121.833 31.4616C121.833 33.6591 122.424 35.4259 123.606 36.7621C124.8 38.0983 126.371 38.7664 128.318 38.7664C129.651 38.7664 130.855 38.5139 131.929 38.0091C132.394 37.7904 132.978 38.1085 132.978 38.6264Z" fill="#09110D"/>
<path d="M115.896 39.7436C115.522 39.7436 115.218 39.4373 115.218 39.0594V36.348H115.15C114.598 37.5075 113.792 38.4351 112.733 39.1308C111.684 39.8154 110.518 40.1578 109.233 40.1578C107.587 40.1578 106.285 39.705 105.327 38.7995C104.369 37.894 103.89 36.7511 103.89 35.3707C103.89 32.4113 105.891 30.6224 109.892 30.004L115.218 29.2254C115.218 25.5813 113.82 23.7593 111.025 23.7593C109.526 23.7593 108.058 24.2243 106.622 25.1542C106.14 25.4667 105.462 25.1388 105.462 24.5602V24.511C105.462 24.2982 105.559 24.0955 105.734 23.9766C106.343 23.5633 107.12 23.2038 108.066 22.898C109.171 22.5446 110.208 22.3679 111.177 22.3679C112.958 22.3679 114.333 22.909 115.303 23.9912C116.283 25.0734 116.774 26.647 116.774 28.712V39.0594C116.774 39.4373 116.47 39.7436 116.095 39.7436H115.896ZM110.45 31.296C108.635 31.5499 107.362 31.964 106.629 32.5383C105.896 33.1014 105.53 34.0235 105.53 35.3045C105.53 36.3094 105.868 37.1376 106.544 37.7891C107.232 38.4406 108.185 38.7664 109.402 38.7664C111.07 38.7664 112.456 38.1645 113.561 36.9609C114.666 35.7462 115.218 34.1836 115.218 32.2732V30.6168L110.45 31.296Z" fill="#09110D"/>
<path d="M87.8636 36.4179H87.7968V46.3158C87.7968 46.6937 87.4932 47 87.1187 47H86.938C86.5635 47 86.2599 46.6937 86.2599 46.3158V23.4573C86.2599 23.0794 86.5635 22.773 86.938 22.773H87.1187C87.4932 22.773 87.7968 23.0794 87.7968 23.4573V26.1924H87.8636C88.4762 24.9716 89.3504 24.0317 90.4864 23.3726C91.6334 22.7028 92.8919 22.3679 94.2617 22.3679C96.4334 22.3679 98.1262 23.0971 99.3401 24.5556C100.565 26.0033 101.178 27.9749 101.178 30.4706C101.178 33.2471 100.476 35.4942 99.0728 37.212C97.6807 38.9189 95.8376 39.7724 93.5434 39.7724C90.9819 39.7724 89.0887 38.6543 87.8636 36.4179ZM87.7968 30.2437V32.3342C87.7968 33.9979 88.337 35.4294 89.4172 36.6286C90.4975 37.817 91.9174 38.4112 93.6771 38.4112C95.4255 38.4112 96.8455 37.6873 97.9369 36.2397C99.0283 34.7812 99.574 32.869 99.574 30.503C99.574 28.4287 99.0728 26.7812 98.0705 25.5604C97.0682 24.3396 95.7318 23.7292 94.0613 23.7292C92.0678 23.7292 90.5253 24.3774 89.4339 25.6738C88.3425 26.9702 87.7968 28.4935 87.7968 30.2437Z" fill="#09110D"/>
<path d="M72.3416 39.1903C72.1382 39.0766 72.0203 38.856 72.0203 38.6214V38.5543C72.0203 37.9857 72.6891 37.6399 73.1968 37.8865C73.5486 38.0573 73.9274 38.207 74.3333 38.3357C75.239 38.6228 76.0222 38.7664 76.6831 38.7664C79.6325 38.7664 81.1072 37.6787 81.1072 35.5032C81.1072 34.7523 80.7829 34.1119 80.1343 33.5818C79.4856 33.0518 78.4332 32.5051 76.9768 31.942C75.1778 31.2352 73.9111 30.5064 73.1768 29.7555C72.4547 28.9935 72.0937 28.0715 72.0937 26.9893C72.0937 25.6089 72.675 24.4936 73.8377 23.6433C75.0125 22.7931 76.4567 22.3679 78.17 22.3679C79.6143 22.3679 80.8726 22.6062 81.9452 23.0828C82.1778 23.1862 82.3188 23.4236 82.3188 23.6801V23.7967C82.3188 24.3242 81.7482 24.6584 81.2677 24.4507C80.2016 23.9898 79.1078 23.7593 77.9865 23.7593C76.7504 23.7593 75.753 24.0519 74.9942 24.6372C74.2354 25.2114 73.856 25.9623 73.856 26.8899C73.856 27.696 74.0947 28.3531 74.572 28.861C75.0493 29.358 76.1018 29.9322 77.7295 30.5837C79.6876 31.3788 81.0338 32.1186 81.7681 32.8033C82.5024 33.4769 82.8695 34.3769 82.8695 35.5032C82.8695 36.8505 82.3066 37.9658 81.1807 38.8492C80.067 39.7216 78.5249 40.1578 76.5546 40.1578C74.9001 40.1578 73.4957 39.8353 72.3416 39.1903Z" fill="#09110D"/>
<path d="M69.4327 34.4137C69.4327 36.1817 68.7756 37.5659 67.4615 38.5663C66.1474 39.5666 64.2108 40.0668 61.6517 40.0668C60.6834 40.0668 59.7843 39.997 58.9543 39.8574C58.1243 39.7178 57.4096 39.5084 56.8102 39.2293C56.2338 38.9268 55.7727 38.5546 55.4269 38.1126C55.1042 37.6706 54.9428 37.1472 54.9428 36.5423C54.9428 35.984 55.058 35.5187 55.2886 35.1465C55.5191 34.751 55.7958 34.4253 56.1186 34.1694C56.7872 34.5416 57.548 34.879 58.401 35.1814C59.2771 35.4606 60.2799 35.6001 61.4096 35.6001C62.1243 35.6001 62.6661 35.4955 63.035 35.2861C63.4269 35.0767 63.6229 34.7975 63.6229 34.4486C63.6229 34.1229 63.4845 33.867 63.2079 33.6809C62.9312 33.4948 62.4701 33.3436 61.8246 33.2272L60.7871 33.0179C58.7814 32.6224 57.2828 32.0059 56.2915 31.1684C55.3232 30.3077 54.839 29.0863 54.839 27.5044C54.839 26.6436 55.0235 25.8643 55.3923 25.1664C55.7612 24.4685 56.2799 23.8869 56.9485 23.4216C57.6171 22.9563 58.4125 22.5958 59.3347 22.3399C60.2799 22.084 61.3174 21.956 62.4471 21.956C63.3001 21.956 64.0955 22.0258 64.8332 22.1654C65.594 22.2817 66.2511 22.4678 66.8044 22.7237C67.3577 22.9796 67.7958 23.3169 68.1185 23.7357C68.4413 24.1312 68.6027 24.6081 68.6027 25.1664C68.6027 25.7015 68.4989 26.1667 68.2914 26.5622C68.107 26.9344 67.8649 27.2485 67.5652 27.5044C67.3808 27.3881 67.1041 27.2718 66.7353 27.1554C66.3664 27.0159 65.9629 26.8995 65.5249 26.8065C65.0868 26.6902 64.6373 26.5971 64.1762 26.5273C63.7381 26.4575 63.3347 26.4226 62.9658 26.4226C62.205 26.4226 61.6171 26.5157 61.2021 26.7018C60.7871 26.8646 60.5797 27.1322 60.5797 27.5044C60.5797 27.7603 60.6949 27.9697 60.9255 28.1325C61.156 28.2954 61.5941 28.4466 62.2396 28.5862L63.3116 28.8304C65.5249 29.3422 67.0926 30.0518 68.0148 30.959C68.96 31.8431 69.4327 32.9946 69.4327 34.4137Z" fill="#339966"/>
<path d="M46.0203 28.7257C46.0203 28.0045 45.8129 27.4811 45.3979 27.1554C45.0059 26.8065 44.4642 26.632 43.7725 26.632C43.3114 26.632 42.8503 26.6901 42.3892 26.8065C41.9512 26.9228 41.5708 27.0973 41.248 27.3299V39.4386C41.0175 39.5084 40.6486 39.5782 40.1414 39.648C39.6573 39.7178 39.15 39.7527 38.6198 39.7527C38.1126 39.7527 37.6515 39.7178 37.2365 39.648C36.8446 39.5782 36.5103 39.4386 36.2336 39.2292C35.957 39.0199 35.738 38.7407 35.5766 38.3918C35.4382 38.0195 35.3691 37.5426 35.3691 36.961V26.4924C35.3691 25.8643 35.4959 25.3525 35.7495 24.957C36.0261 24.5615 36.395 24.2009 36.8561 23.8752C37.64 23.3169 38.6198 22.8633 39.7956 22.5143C40.9944 22.1654 42.3201 21.9909 43.7725 21.9909C46.3777 21.9909 48.3835 22.5725 49.7898 23.7357C51.1961 24.8756 51.8993 26.4691 51.8993 28.5163V39.4386C51.6687 39.5084 51.2999 39.5782 50.7927 39.648C50.3085 39.7178 49.8013 39.7527 49.2711 39.7527C48.7639 39.7527 48.3028 39.7178 47.8878 39.648C47.4958 39.5782 47.1616 39.4386 46.8849 39.2292C46.6082 39.0199 46.3892 38.7407 46.2278 38.3918C46.0895 38.0195 46.0203 37.5426 46.0203 36.961V28.7257Z" fill="#339966"/>
<path d="M25.5537 40.0318C24.1935 40.0318 22.9255 39.8457 21.7497 39.4735C20.5969 39.078 19.5825 38.4964 18.7065 37.7287C17.8534 36.961 17.1733 35.9956 16.6661 34.8324C16.182 33.6692 15.9399 32.3083 15.9399 30.7496C15.9399 29.2142 16.182 27.8998 16.6661 26.8065C17.1733 25.6898 17.8304 24.7825 18.6373 24.0846C19.4442 23.3634 20.3664 22.84 21.4039 22.5143C22.4413 22.1654 23.5018 21.9909 24.5854 21.9909C25.8073 21.9909 26.9139 22.177 27.9053 22.5492C28.9197 22.9214 29.7842 23.4332 30.4989 24.0846C31.2367 24.736 31.8015 25.5153 32.1935 26.4226C32.6084 27.3299 32.8159 28.3186 32.8159 29.3887C32.8159 30.1797 32.5969 30.7845 32.1589 31.2033C31.7208 31.622 31.1099 31.8896 30.326 32.0059L21.7843 33.297C22.0379 34.0647 22.5566 34.6463 23.3405 35.0418C24.1243 35.414 25.0234 35.6001 26.0378 35.6001C26.9831 35.6001 27.8707 35.4838 28.7007 35.2512C29.5537 34.9953 30.2453 34.7045 30.7756 34.3788C31.1445 34.6114 31.4557 34.9371 31.7093 35.3558C31.9629 35.7746 32.0897 36.2166 32.0897 36.6819C32.0897 37.7287 31.6056 38.5081 30.6373 39.0199C29.8995 39.4154 29.0695 39.6829 28.1474 39.8225C27.2252 39.962 26.3606 40.0318 25.5537 40.0318ZM24.5854 26.3179C24.0321 26.3179 23.5479 26.411 23.133 26.5971C22.741 26.7832 22.4183 27.0275 22.1647 27.3299C21.9111 27.6091 21.7151 27.9347 21.5768 28.307C21.4615 28.6559 21.3923 29.0165 21.3693 29.3887L27.2828 28.4116C27.2136 27.9464 26.96 27.4811 26.522 27.0158C26.084 26.5506 25.4384 26.3179 24.5854 26.3179Z" fill="#339966"/>
<path d="M3.21613 39.5782C2.22478 39.5782 1.44092 39.2874 0.864551 38.7058C0.288184 38.1242 0 37.3333 0 36.3329V18.292C0.253602 18.2454 0.657059 18.1873 1.21037 18.1175C1.76368 18.0244 2.29394 17.9779 2.80115 17.9779C3.3314 17.9779 3.7925 18.0244 4.18443 18.1175C4.59941 18.1873 4.94523 18.3269 5.22189 18.5362C5.49855 18.7456 5.70604 19.0364 5.84437 19.4086C5.98269 19.7808 6.05186 20.2694 6.05186 20.8742V34.6579H13.9711C14.1325 34.9138 14.2824 35.2628 14.4207 35.7048C14.559 36.1236 14.6282 36.5656 14.6282 37.0308C14.6282 37.9614 14.4322 38.6244 14.0403 39.0199C13.6484 39.3921 13.1297 39.5782 12.4841 39.5782H3.21613Z" fill="#339966"/>
<path fill-rule="evenodd" clip-rule="evenodd" d="M154.675 13.8417C154.882 13.1661 155.83 13.1661 156.036 13.8417L157.245 17.7974C157.324 18.0569 157.526 18.26 157.783 18.34L161.703 19.5599C162.373 19.7683 162.373 20.7246 161.703 20.933L157.783 22.1529C157.526 22.2329 157.324 22.436 157.245 22.6955L156.036 26.6512C155.83 27.3268 154.882 27.3268 154.675 26.6512L153.467 22.6955C153.387 22.436 153.186 22.2329 152.929 22.1529L149.009 20.933C148.339 20.7246 148.339 19.7683 149.009 19.5599L152.929 18.34C153.186 18.26 153.387 18.0569 153.467 17.7974L154.675 13.8417ZM155.356 15.3304L154.503 18.12C154.318 18.7255 153.849 19.1994 153.249 19.3862L150.484 20.2464L153.249 21.1067C153.849 21.2934 154.318 21.7674 154.503 22.3729L155.356 25.1625L156.208 22.3729C156.393 21.7674 156.863 21.2934 157.463 21.1067L160.228 20.2464L157.463 19.3862C156.863 19.1994 156.393 18.7255 156.208 18.12L155.356 15.3304Z" fill="#09110D"/>
<path fill-rule="evenodd" clip-rule="evenodd" d="M155.115 6.27855L156.91 6.83687C157.713 7.08694 158.342 7.72174 158.59 8.53263L159.143 10.343L159.697 8.53263C159.945 7.72174 160.574 7.08694 161.377 6.83687L163.171 6.27855L161.377 5.72024C160.574 5.47017 159.945 4.83537 159.697 4.02448L159.143 2.21407L158.59 4.02448C158.342 4.83537 157.713 5.47017 156.91 5.72024L155.115 6.27855ZM153.765 6.93239C153.128 6.73396 153.128 5.82315 153.765 5.62472L156.61 4.73948C157.092 4.58944 157.47 4.20856 157.618 3.72203L158.495 0.851527C158.692 0.20808 159.595 0.208077 159.791 0.851527L160.669 3.72203C160.817 4.20856 161.195 4.58944 161.677 4.73948L164.522 5.62472C165.159 5.82315 165.159 6.73396 164.522 6.93239L161.677 7.81763C161.195 7.96767 160.817 8.34855 160.669 8.83508L159.791 11.7056C159.595 12.349 158.692 12.349 158.495 11.7056L157.618 8.83508C157.47 8.34855 157.092 7.96767 156.61 7.81763L153.765 6.93239Z" fill="#09110D"/>
<path fill-rule="evenodd" clip-rule="evenodd" d="M136.417 8.89806L140.147 10.0589C140.978 10.3173 141.628 10.9732 141.884 11.8112L143.034 15.5752L144.184 11.8112C144.441 10.9732 145.091 10.3173 145.921 10.0589L149.651 8.89806L145.921 7.73725C145.091 7.47885 144.441 6.82288 144.184 5.98497L143.034 2.22088L141.884 5.98497C141.628 6.82288 140.978 7.47885 140.147 7.73725L136.417 8.89806ZM134.754 9.63363C134.037 9.4104 134.037 8.38573 134.754 8.16249L139.797 6.59303C140.253 6.45133 140.609 6.09161 140.75 5.6321L142.305 0.542911C142.526 -0.180965 143.542 -0.180976 143.763 0.54291L145.318 5.6321C145.459 6.09161 145.815 6.45133 146.271 6.59303L151.314 8.16249C152.032 8.38573 152.032 9.41039 151.314 9.63363L146.271 11.2031C145.815 11.3448 145.459 11.7045 145.318 12.164L143.763 17.2532C143.542 17.9771 142.526 17.9771 142.305 17.2532L140.75 12.164C140.609 11.7045 140.253 11.3448 139.797 11.2031L134.754 9.63363Z" fill="#09110D"/>
</svg>
