<svg width="15" height="15" viewBox="0 0 15 15" fill="none" xmlns="http://www.w3.org/2000/svg">
<path d="M7.49997 7.19228C6.53749 7.19228 5.71354 6.84958 5.02813 6.16418C4.34271 5.47876 4 4.65481 4 3.69233C4 2.72983 4.34271 1.90588 5.02813 1.22048C5.71354 0.535061 6.53749 0.192352 7.49997 0.192352C8.46246 0.192352 9.28641 0.535061 9.97183 1.22048C10.6572 1.90588 11 2.72983 11 3.69233C11 4.65481 10.6572 5.47876 9.97183 6.16418C9.28641 6.84958 8.46246 7.19228 7.49997 7.19228ZM0 13.2885V12.5846C0 12.0949 0.133016 11.6414 0.39905 11.2241C0.665066 10.8068 1.02051 10.4859 1.46537 10.2616C2.45384 9.77694 3.45096 9.41348 4.45672 9.17118C5.46249 8.92888 6.47691 8.80773 7.49997 8.80773C8.52304 8.80773 9.53746 8.92888 10.5432 9.17118C11.549 9.41348 12.5461 9.77694 13.5346 10.2616C13.9794 10.4859 14.3349 10.8068 14.6009 11.2241C14.8669 11.6414 15 12.0949 15 12.5846V13.2885C15 13.7102 14.8522 14.0689 14.5567 14.3644C14.2612 14.6599 13.9025 14.8077 13.4808 14.8077H1.5192C1.09742 14.8077 0.738775 14.6599 0.443275 14.3644C0.147758 14.0689 0 13.7102 0 13.2885ZM1.49997 13.3077H13.5V12.5846C13.5 12.382 13.4413 12.1945 13.324 12.0221C13.2067 11.8497 13.0474 11.709 12.8461 11.6C11.9846 11.1756 11.1061 10.8542 10.2107 10.6356C9.31524 10.417 8.41167 10.3077 7.49997 10.3077C6.58827 10.3077 5.68471 10.417 4.78927 10.6356C3.89384 10.8542 3.01536 11.1756 2.15382 11.6C1.95254 11.709 1.79325 11.8497 1.67595 12.0221C1.55863 12.1945 1.49997 12.382 1.49997 12.5846V13.3077ZM7.49997 5.69233C8.04997 5.69233 8.52081 5.49649 8.91247 5.10483C9.30414 4.71316 9.49998 4.24233 9.49998 3.69233C9.49998 3.14233 9.30414 2.67149 8.91247 2.27983C8.52081 1.88816 8.04997 1.69233 7.49997 1.69233C6.94997 1.69233 6.47914 1.88816 6.08747 2.27983C5.69581 2.67149 5.49997 3.14233 5.49997 3.69233C5.49997 4.24233 5.69581 4.71316 6.08747 5.10483C6.47914 5.49649 6.94997 5.69233 7.49997 5.69233Z" fill="white"/>
</svg>
