<svg width="16" height="17" viewBox="0 0 16 17" fill="none" xmlns="http://www.w3.org/2000/svg">
<path d="M7.52447 2.46352C7.67415 2.00287 8.32585 2.00287 8.47553 2.46353L9.68386 6.18237C9.75079 6.38838 9.94277 6.52786 10.1594 6.52786H14.0696C14.554 6.52786 14.7554 7.14767 14.3635 7.43237L11.2001 9.73075C11.0248 9.85807 10.9515 10.0838 11.0184 10.2898L12.2268 14.0086C12.3764 14.4693 11.8492 14.8523 11.4573 14.5676L8.29389 12.2693C8.11865 12.1419 7.88135 12.1419 7.70611 12.2693L4.54267 14.5676C4.15081 14.8523 3.62357 14.4693 3.77325 14.0086L4.98157 10.2898C5.04851 10.0838 4.97518 9.85807 4.79994 9.73075L1.6365 7.43237C1.24464 7.14767 1.44603 6.52786 1.93039 6.52786H5.84062C6.05723 6.52786 6.24921 6.38838 6.31614 6.18237L7.52447 2.46352Z" fill="#339966"/>
</svg>
