<svg width="24" height="25" viewBox="0 0 24 25" fill="none" xmlns="http://www.w3.org/2000/svg">
<path d="M14.34 16.1C14.6879 16.4479 15.2521 16.4479 15.6 16.1C15.9479 15.7521 15.9479 15.1879 15.6 14.84L12.9 12.14V8.9C12.9 8.40294 12.4971 8 12 8C11.5029 8 11.1 8.40294 11.1 8.9V12.86L14.34 16.1ZM12 21.5C10.755 21.5 9.585 21.2637 8.49 20.7912C7.395 20.3187 6.4425 19.6775 5.6325 18.8675C4.8225 18.0575 4.18125 17.105 3.70875 16.01C3.23625 14.915 3 13.745 3 12.5C3 11.255 3.23625 10.085 3.70875 8.99C4.18125 7.895 4.8225 6.9425 5.6325 6.1325C6.4425 5.3225 7.395 4.68125 8.49 4.20875C9.585 3.73625 10.755 3.5 12 3.5C13.245 3.5 14.415 3.73625 15.51 4.20875C16.605 4.68125 17.5575 5.3225 18.3675 6.1325C19.1775 6.9425 19.8187 7.895 20.2912 8.99C20.7637 10.085 21 11.255 21 12.5C21 13.745 20.7637 14.915 20.2912 16.01C19.8187 17.105 19.1775 18.0575 18.3675 18.8675C17.5575 19.6775 16.605 20.3187 15.51 20.7912C14.415 21.2637 13.245 21.5 12 21.5ZM12 19.7C13.995 19.7 15.6937 18.9987 17.0962 17.5962C18.4987 16.1937 19.2 14.495 19.2 12.5C19.2 10.505 18.4987 8.80625 17.0962 7.40375C15.6937 6.00125 13.995 5.3 12 5.3C10.005 5.3 8.30625 6.00125 6.90375 7.40375C5.50125 8.80625 4.8 10.505 4.8 12.5C4.8 14.495 5.50125 16.1937 6.90375 17.5962C8.30625 18.9987 10.005 19.7 12 19.7Z" fill="#9DA09E"/>
</svg>
